<svg width="25" height="25" viewBox="0 0 25 25" fill="none" xmlns="http://www.w3.org/2000/svg">
<path d="M12.4984 0C5.59688 0 7.21324e-06 5.7382 7.21324e-06 12.8168C-0.0028125 15.5033 0.821123 18.1227 2.35537 20.3049C3.88961 22.4871 6.05658 24.1218 8.55 24.9778C9.175 25.0959 9.40313 24.7001 9.40313 24.3602C9.40313 24.0554 9.39219 23.2496 9.38594 22.1805C5.90938 22.9544 5.175 20.4619 5.175 20.4619C4.60782 18.9811 3.7875 18.5869 3.7875 18.5869C2.65157 17.7923 3.87188 17.8082 3.87188 17.8082C5.12657 17.8992 5.78594 19.1295 5.78594 19.1295C6.90157 21.0874 8.7125 20.5225 9.425 20.1938C9.5375 19.3656 9.86094 18.8007 10.2188 18.48C7.44375 18.1561 4.525 17.0566 4.525 12.1466C4.525 10.7472 5.0125 9.60303 5.8125 8.70624C5.68282 8.38231 5.25469 7.0786 5.93438 5.31534C5.93438 5.31534 6.98438 4.97066 9.37188 6.62861C10.3918 6.34396 11.4442 6.19907 12.5016 6.19777C13.5589 6.19991 14.6113 6.34533 15.6312 6.63021C18.0172 4.97226 19.0656 5.31693 19.0656 5.31693C19.7469 7.0818 19.3187 8.3839 19.1906 8.70783C19.9922 9.60462 20.475 10.7488 20.475 12.1482C20.475 17.071 17.5531 18.1545 14.7687 18.472C15.2172 18.8678 15.6172 19.6497 15.6172 20.8449C15.6172 22.5587 15.6016 23.9406 15.6016 24.3602C15.6016 24.7033 15.8266 25.1022 16.4609 24.9762C18.9519 24.1181 21.1162 22.4829 22.6483 20.3012C24.1804 18.1195 25.003 15.5016 25 12.8168C25 5.7382 19.4031 0 12.4984 0Z" fill="#888888"/>
</svg>
