<svg width="25" height="25" viewBox="0 0 25 25" fill="none" xmlns="http://www.w3.org/2000/svg">
<path d="M12.4997 0C5.59657 0 0 5.59662 0 12.4998C0 19.4032 5.59636 25 12.4997 25C19.4032 25 25 19.4032 25 12.4998C24.9998 5.59662 19.4032 0 12.4997 0ZM7.31289 5.63769C8.16316 5.63769 8.85285 6.26664 8.85285 7.04257C8.85285 7.8185 8.16316 8.44745 7.31289 8.44745C6.46219 8.44745 5.77294 7.8185 5.77294 7.04257C5.77294 6.26664 6.46219 5.63769 7.31289 5.63769ZM8.86452 17.6538H5.82178V9.71401H8.86452V17.6538ZM19.2039 17.6538H16.1465V13.2878C16.1465 12.7894 16.054 12.4367 15.8696 12.2296C15.6851 12.023 15.4259 11.9192 15.0924 11.9192C14.7235 11.9192 14.4241 12.0589 14.195 12.3381C13.9657 12.6174 13.8514 13.1181 13.8514 13.8409V17.6538H10.8084V9.71401H13.6417V11.0072C14.0651 10.4791 14.4939 10.1015 14.9275 9.8746C15.3611 9.64787 15.8891 9.53462 16.5122 9.53462C17.3547 9.53462 18.0137 9.7849 18.4898 10.2859C18.9655 10.7867 19.2037 11.5605 19.2037 12.6072L19.2039 17.6538Z" 
    fill="#BBBBBB"/>
</svg>
