<svg width="25" height="25" viewBox="0 0 25 25" fill="none" xmlns="http://www.w3.org/2000/svg">
<circle cx="12.5" cy="12.5" r="12.5" fill="#888888"/>
<path d="M18.2756 7.29169H6.72442C5.90621 7.29169 5.20833 7.93984 5.20833 8.75002V16.25C5.20833 17.0371 5.88215 17.7084 6.72442 17.7084H18.2756C19.0938 17.7084 19.7917 17.0602 19.7917 16.25V8.72687C19.7917 7.93984 19.0938 7.29169 18.2756 7.29169ZM18.2756 8.33335C18.2996 8.33335 18.3237 8.33335 18.3478 8.33335L12.5 11.9445L6.65223 8.33335C6.67629 8.33335 6.70036 8.33335 6.72442 8.33335H18.2756ZM18.2756 16.6204H6.72442C6.48377 16.6204 6.29125 16.4352 6.29125 16.2037V9.35187L11.9224 12.8241C12.0909 12.9398 12.2834 12.9861 12.4759 12.9861C12.6685 12.9861 12.861 12.9398 13.0294 12.8241L18.6606 9.35187V16.2269C18.7087 16.4584 18.5162 16.6204 18.2756 16.6204Z" fill="white"/>
</svg>
