<svg width="20" height="12" viewBox="0 0 20 12" fill="none" xmlns="http://www.w3.org/2000/svg">
<path d="M17.1591 12H2.84091C2.08772 11.9993 1.36564 11.747 0.83306 11.2985C0.300478 10.8501 0.000884539 10.2421 0 9.60788V2.39212C0.000884539 1.75792 0.300478 1.14991 0.83306 0.701458C1.36564 0.25301 2.08772 0.000744805 2.84091 0H17.1591C17.9123 0.000744805 18.6344 0.25301 19.1669 0.701458C19.6995 1.14991 19.9991 1.75792 20 2.39212V9.60788C19.9991 10.2421 19.6995 10.8501 19.1669 11.2985C18.6344 11.747 17.9123 11.9993 17.1591 12ZM2.84091 0.844278C2.35338 0.844278 1.88582 1.00735 1.54108 1.29763C1.19634 1.58791 1.00267 1.98161 1.00267 2.39212V9.60788C1.00267 10.0184 1.19634 10.4121 1.54108 10.7024C1.88582 10.9926 2.35338 11.1557 2.84091 11.1557H17.1591C17.6466 11.1557 18.1142 10.9926 18.4589 10.7024C18.8037 10.4121 18.9973 10.0184 18.9973 9.60788V2.39212C18.9973 1.98161 18.8037 1.58791 18.4589 1.29763C18.1142 1.00735 17.6466 0.844278 17.1591 0.844278H2.84091Z" fill="#242424"/>
<path d="M10 7.71108C9.38154 7.71189 8.77962 7.54295 8.28543 7.22984L0.481283 2.25986C0.426143 2.22727 0.379368 2.18566 0.343751 2.13752C0.308135 2.08937 0.284407 2.03568 0.273984 1.97964C0.263562 1.9236 0.26666 1.86636 0.283092 1.81135C0.299525 1.75634 0.328955 1.70469 0.369625 1.65947C0.410295 1.61425 0.46137 1.5764 0.519801 1.54817C0.578232 1.51994 0.64282 1.50192 0.709708 1.49518C0.776595 1.48844 0.84441 1.49312 0.909101 1.50894C0.973793 1.52476 1.03404 1.55139 1.08623 1.58725L8.89038 6.56286C9.21086 6.7643 9.60007 6.87314 10 6.87314C10.3999 6.87314 10.7891 6.7643 11.1096 6.56286L18.9138 1.58725C18.966 1.55139 19.0262 1.52476 19.0909 1.50894C19.1556 1.49312 19.2234 1.48844 19.2903 1.49518C19.3572 1.50192 19.4218 1.51994 19.4802 1.54817C19.5386 1.5764 19.5897 1.61425 19.6304 1.65947C19.671 1.70469 19.7005 1.75634 19.7169 1.81135C19.7333 1.86636 19.7364 1.9236 19.726 1.97964C19.7156 2.03568 19.6919 2.08937 19.6563 2.13752C19.6206 2.18566 19.5739 2.22727 19.5187 2.25986L11.7146 7.22984C11.2204 7.54295 10.6185 7.71189 10 7.71108Z" fill="#242424"/>
<path d="M0.698529 10.8237C0.596849 10.8238 0.497526 10.7979 0.413742 10.7494C0.329957 10.7009 0.26567 10.632 0.229412 10.5521C0.193154 10.4721 0.186639 10.3847 0.210731 10.3015C0.234823 10.2183 0.288383 10.1433 0.364304 10.0863L6.51404 5.46813C6.61332 5.3935 6.74374 5.35512 6.87662 5.36145C7.0095 5.36779 7.13395 5.41831 7.22259 5.5019C7.31124 5.5855 7.35681 5.69532 7.34929 5.80721C7.34177 5.9191 7.28177 6.02389 7.18249 6.09853L1.03275 10.7167C0.941426 10.7867 0.821993 10.8249 0.698529 10.8237ZM19.3015 10.8237C19.178 10.8249 19.0586 10.7867 18.9672 10.7167L12.8175 6.09853C12.7182 6.02389 12.6582 5.9191 12.6507 5.80721C12.6432 5.69532 12.6888 5.5855 12.7774 5.5019C12.866 5.41831 12.9905 5.36779 13.1234 5.36145C13.2563 5.35512 13.3867 5.3935 13.486 5.46813L19.6324 10.0863C19.7083 10.1433 19.7618 10.2183 19.7859 10.3015C19.81 10.3847 19.8035 10.4721 19.7672 10.5521C19.731 10.632 19.6667 10.7009 19.5829 10.7494C19.4991 10.7979 19.3998 10.8238 19.2981 10.8237H19.3015Z" fill="#242424"/>
</svg>
