<svg width="342" height="428" viewBox="0 0 342 428" fill="none" xmlns="http://www.w3.org/2000/svg">
<path d="M171 0.666687C125.752 0.717505 82.3717 18.7147 50.3765 50.7099C18.3813 82.7051 0.38407 126.085 0.333252 171.333C0.333252 240.773 50.7439 298.437 104.141 359.472C121.037 378.8 138.531 398.789 154.104 419.013C156.097 421.599 158.656 423.692 161.586 425.133C164.515 426.573 167.736 427.322 171 427.322C174.264 427.322 177.485 426.573 180.414 425.133C183.343 423.692 185.903 421.599 187.896 419.013C203.469 398.789 220.963 378.8 237.859 359.472C291.256 298.437 341.667 240.773 341.667 171.333C341.616 126.085 323.619 82.7051 291.623 50.7099C259.628 18.7147 216.248 0.717505 171 0.666687ZM171 235.333C158.342 235.333 145.968 231.58 135.443 224.547C124.919 217.515 116.716 207.52 111.872 195.825C107.028 184.131 105.76 171.262 108.23 158.848C110.699 146.433 116.795 135.029 125.745 126.079C134.696 117.128 146.099 111.033 158.514 108.563C170.929 106.094 183.797 107.361 195.492 112.205C207.186 117.049 217.182 125.252 224.214 135.777C231.246 146.302 235 158.675 235 171.333C235 188.307 228.257 204.586 216.255 216.588C204.252 228.591 187.974 235.333 171 235.333Z" fill="#BBBBBB"/>
</svg>
